<svg width="1440" height="888" viewBox="0 0 1440 888" fill="none" xmlns="http://www.w3.org/2000/svg">
<rect width="1440" height="888" fill="white"/>
<path fill-rule="evenodd" clip-rule="evenodd" d="M1044.23 299.334C1043.69 298.946 1042.43 298.809 1041.84 298.692C1039.39 298.21 1036.87 298 1034.37 298C1026.68 298.012 1018.86 298.767 1011.3 300.074C1006.49 300.903 1000.69 303.696 995.909 302.179C987.585 299.537 979.172 299.667 971.274 303.439C964.053 306.888 958.572 313.439 955.373 320.517C954.89 321.586 952.932 325.519 952.378 328.17C952.141 328.712 951.913 329.257 951.708 329.811C951.126 331.384 950.603 332.984 950.118 334.588C949.91 335.272 949.389 336.782 950.008 337.074C949.019 338.901 948.141 340.783 947.411 342.726C945.286 348.378 942.962 354.578 942.215 360.568C941.939 362.786 941.928 365.017 942.185 367.239C942.312 368.338 942.26 370.546 943.004 371.382C944.585 373.154 945.396 370.673 945.218 369.491C943.858 360.485 946.485 352.027 949.598 343.561C951.612 338.087 954.92 333.078 958.626 328.543C961.625 324.871 964.842 321.98 968.953 319.546C973.981 316.569 979.356 314.163 984.681 311.749C988.184 310.161 991.691 308.615 995.291 307.247C996.092 306.942 997.351 306.161 998.239 306.158C1000.12 306.152 1002.78 307.537 1004.59 308.052C1010.55 309.748 1016.59 311.919 1022.76 312.785C1026.71 313.341 1030.42 312.715 1034.11 311.398C1034.49 311.264 1035.12 310.918 1035.9 310.424C1038.65 309.368 1041.24 308.039 1043.5 306.121C1044.81 305.017 1045.99 303.589 1047.07 302.282C1047.39 301.892 1047.53 301.444 1047.54 301.018C1047.78 300.891 1047.94 300.741 1047.98 300.567C1048.25 299.281 1045.8 299.258 1044.23 299.334" fill="#89C5CC"/>
<path fill-rule="evenodd" clip-rule="evenodd" d="M419.273 406.541C417.764 407.763 416.284 409.011 414.84 410.31C413.739 411.3 411.791 412.485 411.396 413.985C410.985 415.544 412.282 417.003 413.306 417.945C418.723 422.929 424.823 426.298 432.329 426.859C443.887 427.722 453.946 424.77 463.974 418.963C471.018 414.883 475.684 408.849 476.703 400.701C485.092 404.187 493.205 408.993 500.1 414.891C503.502 417.801 506.432 421.025 509.142 424.599C510.878 426.889 512.557 429.215 514.115 431.631C514.792 432.68 515.481 434.542 516.599 435.146C517.912 435.856 519.499 434.743 519.434 433.284C519.379 432.069 518.068 430.66 517.454 429.667C516.436 428.018 515.402 426.379 514.313 424.776C512.551 422.179 510.73 419.62 508.744 417.19C504.28 411.73 498.601 407.221 492.714 403.375C481.42 395.997 469.025 391.349 455.283 390.955C446.833 390.713 439.725 393.6 432.499 397.911C428 400.595 423.356 403.235 419.273 406.541" fill="#DDE3E9"/>
<path fill-rule="evenodd" clip-rule="evenodd" d="M528.883 370.856C520.077 361.787 511.241 352.832 501.403 344.847C495.605 340.141 489.495 335.863 483.511 331.401C484.201 332.006 484.878 332.628 485.539 333.266C483.671 331.998 481.226 331.281 479.246 330.107C477.037 328.798 474.925 327.301 472.854 325.791C468.811 322.845 464.829 319.843 460.673 317.051C456.043 313.94 451.245 311.066 446.536 308.072C442.539 305.532 438.494 302.751 434.218 300.674C431.888 299.542 429.553 298.201 427.213 297.02C426.43 296.625 418.484 291.608 418.504 291.593C418.943 291.262 422.942 293.14 423.56 293.393C425.366 294.131 427.094 295.013 428.83 295.893C427.877 294.013 427.123 292.038 426.712 289.958C426.585 289.317 425.569 284.644 426.089 284.252C426.348 284.057 428.883 292.416 429.013 293.22C429.119 293.872 429.103 294.812 429.317 295.431C429.662 296.429 429.645 296.127 430.405 296.69C431.798 297.721 433.647 298.365 435.154 299.227C435.968 299.68 438.485 301.48 440.001 301.993C444.588 304.221 449.238 307.649 453.597 310.495C452.453 308.345 451.582 306.097 450.948 303.741C450.797 303.182 449.167 298.165 449.563 297.867C450.008 297.532 453.112 305.195 453.296 305.92C453.637 307.268 453.708 308.768 454.136 310.079C454.605 311.518 456.07 312.028 457.39 312.867C462.247 315.953 466.938 319.232 471.55 322.662C476.583 313.711 470.78 302.903 465.89 295.393C462.364 289.98 457.619 285.34 452.608 281.289C445.92 275.882 438.269 271.563 430.627 267.612C421.723 263.009 412.099 260.156 402.093 258.839C396.86 258.149 391.507 258.169 386.221 258.39C383.639 258.498 381.16 258.84 378.686 259.682C377.57 260.062 376.492 260.541 375.442 261.077C374.644 261.484 372.713 261.914 372.255 262.521C368.477 267.438 366.545 272.337 366.84 278.515C367.119 284.363 368.966 290.214 371.472 295.431C374.264 301.24 377.854 306.512 382.55 310.936C386.132 314.312 390.137 317.25 394.116 320.15C408.267 330.463 426.208 339.433 444.536 337.128C450.469 336.383 456.112 334.308 461.385 331.489C462.628 330.824 463.863 330.152 465.036 329.368C465.827 328.839 467.941 326.456 468.736 326.37C469.827 326.251 472.175 328.469 473.198 329.144C480.972 334.275 488.542 339.685 495.953 345.313C503.839 351.301 511.337 357.697 518.615 364.393C521.71 367.242 524.786 370.096 527.791 373.04C528.491 373.725 530.202 376.247 531.471 376.361C532.273 376.434 532.814 375.749 532.7 375.006C532.501 373.715 529.785 371.784 528.883 370.856" fill="#C1DEE2"/>
<path fill-rule="evenodd" clip-rule="evenodd" d="M1034.98 335.66C1031.57 334.915 1027.8 334.972 1024.33 335.033C1005.7 335.287 987.397 344.109 975.489 358.205C965.351 370.205 962.563 385.125 960.56 400.207C960.362 401.704 960.277 403.192 960.165 404.693C960.141 405.015 960.105 405.302 960.066 405.573C959.279 406.277 958.865 407.098 959.332 408C957.597 411.797 956.129 415.69 954.869 419.706C951.162 431.526 947.392 443.571 949.714 456C950.257 449.16 951.399 442.166 952.764 435.438C952.842 435.052 952.927 434.669 953.015 434.287C953.025 434.247 953.033 434.206 953.042 434.166C953.525 432.106 954.153 430.108 954.917 428.141C954.925 428.119 954.933 428.098 954.941 428.077C955.042 427.818 955.149 427.56 955.255 427.303C955.474 426.77 955.699 426.238 955.937 425.709C956.018 425.528 956.095 425.346 956.17 425.163C957.282 422.437 957.751 419.365 958.748 416.545C958.986 415.904 959.235 415.265 959.496 414.629C959.512 414.592 959.527 414.555 959.543 414.518C960.249 412.807 961.028 411.118 961.853 409.446C962.301 409.11 962.54 408.274 962.927 407.515C963.006 407.365 963.631 406.368 963.817 405.793C964.303 404.854 964.786 403.915 965.275 402.977C965.261 402.983 965.246 402.988 965.231 402.994C965.72 402.093 966.211 401.197 966.698 400.304C966.805 400.108 966.913 399.912 967.021 399.715C967.196 399.402 967.371 399.089 967.545 398.777C969.177 395.856 970.908 392.994 972.705 390.167C973.347 389.158 974.879 387.711 975.173 386.579C975.184 386.536 975.186 386.497 975.193 386.457C979.093 380.979 983.582 375.927 988.967 371.924C988.316 372.628 986.932 375.015 986.567 375.488C985.447 376.935 984.232 378.282 983.013 379.646C980.828 382.089 978.696 384.609 976.801 387.274C973.335 392.148 970.346 397.277 967.519 402.51C967.493 402.54 967.463 402.569 967.438 402.601C966.017 404.352 965.123 406.998 964.101 409.001C968.147 407.127 972.622 405.906 976.774 404.242C980.916 402.583 984.944 400.735 988.834 398.566C994.003 395.682 999.366 392.427 1004.25 388.743C1009.85 385.271 1014.55 380.492 1018.7 375.477C1023.62 369.543 1028.12 363.558 1030.9 356.353C1032.27 352.813 1033.34 349.121 1033.98 345.386C1034.01 345.224 1034.05 345.047 1034.08 344.864C1034.74 343.574 1035.32 342.255 1035.81 340.906C1036.59 338.766 1038.42 336.412 1034.98 335.66" fill="#69A1AC"/>
<path fill-rule="evenodd" clip-rule="evenodd" d="M386.292 347.014C384.94 345.666 383.422 344.45 381.64 343.583C381.189 343.364 377.833 341.895 377.614 342.218C377.105 342.968 385.886 346.583 386.292 347.014M402.205 338.012C402.194 338.069 403.358 339.887 403.675 340.446C404.349 341.635 404.972 342.847 405.558 344.061C404.69 341.916 403.799 339.928 402.205 338.012M320.818 352.814C319.697 353.146 318.349 351.836 319.803 351.514C320.98 351.254 320.922 351.193 321.45 350.321C321.879 349.612 322.144 348.748 322.52 348.005C323.318 346.427 324.224 344.923 325.336 343.514C327.718 340.493 330.621 337.89 333.877 335.696C339.558 331.868 345.929 328.369 352.687 326.611C363.432 323.816 375.662 323.643 386.424 325.581C393.089 326.781 399.18 328.867 403.606 333.809C405.818 336.279 407.555 339.172 408.314 342.358C408.512 343.19 408.475 344.116 408.723 344.932C409.104 346.185 408.936 345.851 410.528 346.095C412.267 346.362 414.004 346.633 415.74 346.91C420.287 347.634 424.861 348.403 429.291 349.578C430.749 349.965 432.176 350.437 433.569 350.987C434.622 351.402 438.818 352.704 439.328 353.965C440.177 356.062 437.333 355.111 436.449 354.655C435.675 354.254 434.881 353.881 434.075 353.538C432.045 352.673 429.93 352.004 427.767 351.471C425.43 350.895 423.045 350.466 420.669 350.035C418.454 349.634 416.23 349.27 414.003 348.921C412.766 348.727 411.528 348.539 410.29 348.35C409.867 348.286 409.121 347.949 409.178 348.455C406.575 347.993 403.76 348.06 401.109 347.932C397.862 347.777 394.602 347.649 391.344 347.742C388.994 347.81 386.642 347.952 384.304 348.242C382.938 348.412 381.594 348.661 380.253 348.976C379.517 349.149 376.614 349.515 376.212 350.106C376.385 349.852 379.589 350.099 379.997 350.084C381.628 350.028 383.247 349.879 384.872 349.712C387.888 349.402 390.906 349.24 393.931 349.263C393.919 349.752 391.853 350.623 391.348 350.947C390.217 351.674 389.134 352.467 388.123 353.337C386.343 354.869 384.211 356.766 382.979 358.581C383.342 358.046 385.133 357.35 385.768 356.942C386.786 356.287 387.783 355.588 388.727 354.841C389.598 354.152 390.411 353.407 391.21 352.646C392.009 351.885 393.094 350.303 394.144 349.796C394.208 349.765 394.666 350.098 394.926 349.985C395.188 349.871 395.514 349.3 395.581 349.277C396.559 348.93 398.415 349.362 399.443 349.406C402.109 349.519 404.771 349.667 407.435 349.802C408.26 349.843 408.961 349.671 409.273 350.231C409.605 350.829 408.997 352.4 408.824 353.051C408.181 355.469 407.041 357.638 405.245 359.511C401.883 363.02 397.736 365.359 393.052 366.924C375.111 372.918 356.023 375.318 338.087 369.083C330.662 366.502 319.479 361.889 320.818 352.814" fill="#89C5CC"/>
<g opacity="0.6">
<g clip-path="url(#clip0)">
<path fill-rule="evenodd" clip-rule="evenodd" d="M1141.96 635.189C1154.17 711.272 858.277 760.899 603.6 726.266C348.922 691.633 232.088 556.387 353.616 484.322C475.144 412.258 1129.76 559.106 1141.96 635.189Z" fill="#DDE3E9"/>
</g>
</g>
<rect x="492" y="180" width="159" height="302" rx="8" fill="#F2F2F2"/>
<path fill-rule="evenodd" clip-rule="evenodd" d="M571 463C579.284 463 586 456.284 586 448C586 439.716 579.284 433 571 433C562.716 433 556 439.716 556 448C556 456.284 562.716 463 571 463Z" fill="white"/>
<path fill-rule="evenodd" clip-rule="evenodd" d="M558 200C559.105 200 560 199.105 560 198C560 196.895 559.105 196 558 196C556.895 196 556 196.895 556 198C556 199.105 556.895 200 558 200Z" fill="white"/>
<rect x="565" y="196" width="21" height="4" rx="2" fill="white"/>
<rect x="506" y="208" width="131" height="54" rx="4" fill="white"/>
<g clip-path="url(#clip1)">
<rect x="545" y="224.2" width="73" height="8.1" rx="3" fill="#DDE3E9"/>
<rect x="545" y="237.7" width="49" height="8.1" rx="3" fill="#DDE3E9"/>
</g>
<path fill-rule="evenodd" clip-rule="evenodd" d="M527 247C533.627 247 539 241.627 539 235C539 228.373 533.627 223 527 223C520.373 223 515 228.373 515 235C515 241.627 520.373 247 527 247Z" fill="#C5CFD6"/>
<rect x="506" y="270" width="131" height="42" rx="4" fill="white"/>
<g clip-path="url(#clip2)">
<rect x="545" y="282.6" width="73" height="6.3" rx="3" fill="#DDE3E9"/>
<rect x="545" y="293.1" width="49" height="6.3" rx="3" fill="#DDE3E9"/>
</g>
<path fill-rule="evenodd" clip-rule="evenodd" d="M527 303C533.627 303 539 297.627 539 291C539 284.373 533.627 279 527 279C520.373 279 515 284.373 515 291C515 297.627 520.373 303 527 303Z" fill="#C5CFD6"/>
<rect x="506" y="320" width="131" height="42" rx="4" fill="white"/>
<g clip-path="url(#clip3)">
<rect x="545" y="332.6" width="73" height="6.3" rx="3" fill="#DDE3E9"/>
<rect x="545" y="343.1" width="49" height="6.3" rx="3" fill="#DDE3E9"/>
</g>
<path fill-rule="evenodd" clip-rule="evenodd" d="M527 353C533.627 353 539 347.627 539 341C539 334.373 533.627 329 527 329C520.373 329 515 334.373 515 341C515 347.627 520.373 353 527 353Z" fill="#AFB9C5"/>
<rect x="506" y="370" width="131" height="42" rx="4" fill="white"/>
<g clip-path="url(#clip4)">
<rect x="545" y="382.6" width="73" height="6.3" rx="3" fill="#DDE3E9"/>
<rect x="545" y="393.1" width="49" height="6.3" rx="3" fill="#DDE3E9"/>
</g>
<path fill-rule="evenodd" clip-rule="evenodd" d="M527 403C533.627 403 539 397.627 539 391C539 384.373 533.627 379 527 379C520.373 379 515 384.373 515 391C515 397.627 520.373 403 527 403Z" fill="#C5CFD6"/>
<path fill-rule="evenodd" clip-rule="evenodd" d="M522.14 424C520.815 424 519.494 424.027 518.171 424.095C517.162 424.148 515.621 423.939 514.768 424.568C513.881 425.221 513.942 426.557 514.081 427.501C514.813 432.493 516.6 436.919 520.339 440.456C526.096 445.901 532.695 448.668 540.504 449.9C545.99 450.766 551.054 449.564 555.092 445.663C558.043 451.139 560.281 457.199 561.404 463.315C561.958 466.333 562.127 469.315 562.03 472.388C561.967 474.356 561.859 476.32 561.648 478.279C561.556 479.13 561.122 480.418 561.455 481.223C561.846 482.167 563.165 482.259 563.757 481.453C564.25 480.783 564.16 479.466 564.261 478.673C564.429 477.355 564.584 476.036 564.695 474.712C564.876 472.569 565.009 470.42 565 468.268C564.977 463.435 563.902 458.583 562.432 453.995C559.612 445.192 555.037 437.369 547.921 431.231C543.545 427.457 538.537 425.929 532.856 425.108C529.318 424.597 525.723 424 522.14 424" fill="#89C5CC"/>
<path fill-rule="evenodd" clip-rule="evenodd" d="M542.571 459C528.272 459 518.642 470.524 514.089 482.502C512.372 487.016 511.97 491.974 511.308 496.714C511.096 498.236 511.175 500.554 510.557 501.909C510.333 502.401 509.819 502.577 510.065 503.247C510.214 503.652 510.505 503.901 510.944 503.981C511.843 504.147 513.115 503.167 513.886 502.781C520.282 499.573 524.484 494.613 527.912 488.545C530.038 484.784 532.194 480.879 533.456 476.75C534.227 474.227 534.676 471.571 534.94 468.954C535.044 467.923 535.144 466.868 535.138 465.832C535.132 464.803 534.653 464.259 534.309 463.364C539.08 461.558 544.466 461.066 549.299 462.937C553.769 464.668 557.482 468.013 559.561 472.216C560.101 473.308 560.518 474.46 560.821 475.636C561.02 476.406 561.029 477.404 561.398 478.1C562.29 479.788 564.168 478.66 563.988 477.089C563.485 472.708 560.979 468.309 557.775 465.263C553.734 461.421 548.258 459 542.571 459" fill="#89C5CC"/>
<rect x="558" y="206" width="159" height="302" rx="8" fill="#DDE3E9"/>
<path fill-rule="evenodd" clip-rule="evenodd" d="M637 489C645.284 489 652 482.284 652 474C652 465.716 645.284 459 637 459C628.716 459 622 465.716 622 474C622 482.284 628.716 489 637 489Z" fill="white"/>
<path fill-rule="evenodd" clip-rule="evenodd" d="M624 226C625.105 226 626 225.105 626 224C626 222.895 625.105 222 624 222C622.895 222 622 222.895 622 224C622 225.105 622.895 226 624 226Z" fill="white"/>
<rect x="631" y="222" width="21" height="4" rx="2" fill="white"/>
<rect x="572" y="234" width="131" height="54" rx="4" fill="white"/>
<g clip-path="url(#clip5)">
<rect x="581" y="250.2" width="73" height="8.1" rx="3" fill="#DDE3E9"/>
<rect x="581" y="263.7" width="49" height="8.1" rx="3" fill="#DDE3E9"/>
</g>
<path fill-rule="evenodd" clip-rule="evenodd" d="M689 268C692.866 268 696 264.866 696 261C696 257.134 692.866 254 689 254C685.134 254 682 257.134 682 261C682 264.866 685.134 268 689 268Z" fill="#DDE3E9"/>
<path fill-rule="evenodd" clip-rule="evenodd" d="M689 264C690.657 264 692 262.657 692 261C692 259.343 690.657 258 689 258C687.343 258 686 259.343 686 261C686 262.657 687.343 264 689 264Z" fill="#F2F2F2"/>
<rect x="572" y="296" width="131" height="42" rx="4" fill="white"/>
<g clip-path="url(#clip6)">
<rect x="611" y="308.6" width="73" height="6.3" rx="3" fill="#DDE3E9"/>
<rect x="611" y="319.1" width="49" height="6.3" rx="3" fill="#DDE3E9"/>
</g>
<path fill-rule="evenodd" clip-rule="evenodd" d="M593 329C599.627 329 605 323.627 605 317C605 310.373 599.627 305 593 305C586.373 305 581 310.373 581 317C581 323.627 586.373 329 593 329Z" fill="#C5CFD6"/>
<rect x="572" y="346" width="131" height="42" rx="4" fill="white"/>
<g clip-path="url(#clip7)">
<rect x="581" y="358.6" width="73" height="6.3" rx="3" fill="#DDE3E9"/>
<rect x="581" y="369.1" width="49" height="6.3" rx="3" fill="#AFB9C5"/>
</g>
<path fill-rule="evenodd" clip-rule="evenodd" d="M689 374C692.866 374 696 370.866 696 367C696 363.134 692.866 360 689 360C685.134 360 682 363.134 682 367C682 370.866 685.134 374 689 374Z" fill="#DDE3E9"/>
<path fill-rule="evenodd" clip-rule="evenodd" d="M689 370C690.657 370 692 368.657 692 367C692 365.343 690.657 364 689 364C687.343 364 686 365.343 686 367C686 368.657 687.343 370 689 370Z" fill="#F2F2F2"/>
<rect x="572" y="396" width="131" height="42" rx="4" fill="white"/>
<g clip-path="url(#clip8)">
<rect x="611" y="408.6" width="73" height="6.3" rx="3" fill="#DDE3E9"/>
<rect x="611" y="419.1" width="49" height="6.3" rx="3" fill="#DDE3E9"/>
</g>
<path fill-rule="evenodd" clip-rule="evenodd" d="M593 429C599.627 429 605 423.627 605 417C605 410.373 599.627 405 593 405C586.373 405 581 410.373 581 417C581 423.627 586.373 429 593 429Z" fill="#C5CFD6"/>
<rect x="624" y="231" width="335" height="346" rx="8" fill="#F2F2F2"/>
<rect x="873" y="274" width="70" height="81" rx="8" fill="white"/>
<path fill-rule="evenodd" clip-rule="evenodd" d="M908 321C916.837 321 924 313.837 924 305C924 296.163 916.837 289 908 289C899.163 289 892 296.163 892 305C892 313.837 899.163 321 908 321Z" fill="#DDE3E9"/>
<rect x="883" y="325" width="50" height="6" rx="3" fill="#DDE3E9"/>
<rect x="891" y="335" width="34" height="6" rx="3" fill="#DDE3E9"/>
<path d="M624 239C624 234.582 627.582 231 632 231H951C955.418 231 959 234.582 959 239V258H624V239Z" fill="#C5CFD6"/>
<path fill-rule="evenodd" clip-rule="evenodd" d="M637 249C639.209 249 641 247.209 641 245C641 242.791 639.209 241 637 241C634.791 241 633 242.791 633 245C633 247.209 634.791 249 637 249Z" fill="#F2F2F2"/>
<path fill-rule="evenodd" clip-rule="evenodd" d="M649 249C651.209 249 653 247.209 653 245C653 242.791 651.209 241 649 241C646.791 241 645 242.791 645 245C645 247.209 646.791 249 649 249Z" fill="#F2F2F2"/>
<path fill-rule="evenodd" clip-rule="evenodd" d="M661 249C663.209 249 665 247.209 665 245C665 242.791 663.209 241 661 241C658.791 241 657 242.791 657 245C657 247.209 658.791 249 661 249Z" fill="#F2F2F2"/>
<rect x="873" y="363" width="70" height="194" rx="8" fill="white"/>
<rect x="891" y="381" width="34" height="26" rx="4" fill="#DDE3E9"/>
<rect x="891" y="415" width="34" height="25" rx="4" fill="#AFB9C5"/>
<rect x="891" y="448" width="34" height="25" rx="4" fill="#DDE3E9"/>
<rect x="891" y="514" width="34" height="25" rx="4" fill="#DDE3E9"/>
<rect x="891" y="481" width="34" height="25" rx="4" fill="#C5CFD6"/>
<rect x="640" y="275" width="225" height="47" rx="4" fill="white"/>
<g clip-path="url(#clip9)">
<rect x="649" y="289.1" width="167" height="7.05" rx="3" fill="#DDE3E9"/>
<rect x="649" y="300.85" width="112.096" height="7.05" rx="3" fill="#DDE3E9"/>
</g>
<path fill-rule="evenodd" clip-rule="evenodd" d="M840.954 305.5C844.82 305.5 847.954 302.366 847.954 298.5C847.954 294.634 844.82 291.5 840.954 291.5C837.088 291.5 833.954 294.634 833.954 298.5C833.954 302.366 837.088 305.5 840.954 305.5Z" fill="#DDE3E9"/>
<path fill-rule="evenodd" clip-rule="evenodd" d="M840.954 301.5C842.611 301.5 843.954 300.157 843.954 298.5C843.954 296.843 842.611 295.5 840.954 295.5C839.297 295.5 837.954 296.843 837.954 298.5C837.954 300.157 839.297 301.5 840.954 301.5Z" fill="#F2F2F2"/>
<rect x="640" y="330" width="225" height="39" rx="4" fill="white"/>
<g clip-path="url(#clip10)">
<rect x="649" y="341.7" width="167" height="5.85" rx="2.925" fill="#DDE3E9"/>
<rect x="649" y="351.45" width="112.096" height="5.85" rx="2.925" fill="#DDE3E9"/>
</g>
<path fill-rule="evenodd" clip-rule="evenodd" d="M840.954 356.5C844.82 356.5 847.954 353.366 847.954 349.5C847.954 345.634 844.82 342.5 840.954 342.5C837.088 342.5 833.954 345.634 833.954 349.5C833.954 353.366 837.088 356.5 840.954 356.5Z" fill="#DDE3E9"/>
<path fill-rule="evenodd" clip-rule="evenodd" d="M840.954 352.5C842.611 352.5 843.954 351.157 843.954 349.5C843.954 347.843 842.611 346.5 840.954 346.5C839.297 346.5 837.954 347.843 837.954 349.5C837.954 351.157 839.297 352.5 840.954 352.5Z" fill="#F2F2F2"/>
<rect x="640" y="377" width="225" height="39" rx="4" fill="white"/>
<g clip-path="url(#clip11)">
<rect x="649" y="388.7" width="167" height="5.85" rx="2.925" fill="#DDE3E9"/>
<rect x="649" y="398.45" width="112.096" height="5.85" rx="2.925" fill="#DDE3E9"/>
</g>
<path fill-rule="evenodd" clip-rule="evenodd" d="M840.954 403.5C844.82 403.5 847.954 400.366 847.954 396.5C847.954 392.634 844.82 389.5 840.954 389.5C837.088 389.5 833.954 392.634 833.954 396.5C833.954 400.366 837.088 403.5 840.954 403.5Z" fill="#DDE3E9"/>
<path fill-rule="evenodd" clip-rule="evenodd" d="M840.954 399.5C842.611 399.5 843.954 398.157 843.954 396.5C843.954 394.843 842.611 393.5 840.954 393.5C839.297 393.5 837.954 394.843 837.954 396.5C837.954 398.157 839.297 399.5 840.954 399.5Z" fill="#AFB9C5"/>
<rect x="640" y="518" width="225" height="39" rx="4" fill="white"/>
<g clip-path="url(#clip12)">
<rect x="649" y="529.7" width="167" height="5.85" rx="2.925" fill="#DDE3E9"/>
<rect x="649" y="539.45" width="112.096" height="5.85" rx="2.925" fill="#DDE3E9"/>
</g>
<path fill-rule="evenodd" clip-rule="evenodd" d="M840.954 544.5C844.82 544.5 847.954 541.366 847.954 537.5C847.954 533.634 844.82 530.5 840.954 530.5C837.088 530.5 833.954 533.634 833.954 537.5C833.954 541.366 837.088 544.5 840.954 544.5Z" fill="#DDE3E9"/>
<path fill-rule="evenodd" clip-rule="evenodd" d="M840.954 540.5C842.611 540.5 843.954 539.157 843.954 537.5C843.954 535.843 842.611 534.5 840.954 534.5C839.297 534.5 837.954 535.843 837.954 537.5C837.954 539.157 839.297 540.5 840.954 540.5Z" fill="#F2F2F2"/>
<rect x="640" y="471" width="225" height="39" rx="4" fill="white"/>
<g clip-path="url(#clip13)">
<rect x="649" y="482.7" width="167" height="5.85" rx="2.925" fill="#DDE3E9"/>
<rect x="649" y="492.45" width="112.096" height="5.85" rx="2.925" fill="#DDE3E9"/>
</g>
<path fill-rule="evenodd" clip-rule="evenodd" d="M840.954 497.5C844.82 497.5 847.954 494.366 847.954 490.5C847.954 486.634 844.82 483.5 840.954 483.5C837.088 483.5 833.954 486.634 833.954 490.5C833.954 494.366 837.088 497.5 840.954 497.5Z" fill="#DDE3E9"/>
<path fill-rule="evenodd" clip-rule="evenodd" d="M840.954 493.5C842.611 493.5 843.954 492.157 843.954 490.5C843.954 488.843 842.611 487.5 840.954 487.5C839.297 487.5 837.954 488.843 837.954 490.5C837.954 492.157 839.297 493.5 840.954 493.5Z" fill="#F2F2F2"/>
<rect x="640" y="424" width="225" height="39" rx="4" fill="white"/>
<g clip-path="url(#clip14)">
<rect x="649" y="435.7" width="167" height="5.85" rx="2.925" fill="#DDE3E9"/>
<rect x="649" y="445.45" width="112.096" height="5.85" rx="2.925" fill="#DDE3E9"/>
</g>
<path fill-rule="evenodd" clip-rule="evenodd" d="M840.954 450.5C844.82 450.5 847.954 447.366 847.954 443.5C847.954 439.634 844.82 436.5 840.954 436.5C837.088 436.5 833.954 439.634 833.954 443.5C833.954 447.366 837.088 450.5 840.954 450.5Z" fill="#DDE3E9"/>
<path fill-rule="evenodd" clip-rule="evenodd" d="M840.954 446.5C842.611 446.5 843.954 445.157 843.954 443.5C843.954 441.843 842.611 440.5 840.954 440.5C839.297 440.5 837.954 441.843 837.954 443.5C837.954 445.157 839.297 446.5 840.954 446.5Z" fill="#F2F2F2"/>
<path fill-rule="evenodd" clip-rule="evenodd" d="M1041.99 401.376C1038.04 398.701 1032.8 398 1028.08 398C1009.64 398 992.311 404.84 977.341 415.032C969.138 420.616 961.8 427.728 955.322 435.132C951.582 439.407 948.248 444.03 945.887 449.173C944.294 452.644 943.201 456.261 942.46 459.991C941.557 464.537 940.839 469.175 940.515 473.797C940.387 475.617 939.33 485.274 942.356 485.438C942.338 485.676 942.334 485.903 942.353 486.106C935.782 496.38 931.723 508.42 927.958 519.835C924.683 529.769 921.764 539.786 919.87 550.063C917.375 563.592 915.737 577.326 914.958 591.05C914.791 593.999 914.676 596.95 914.577 599.903C914.493 602.422 914.408 604.941 914.325 607.461C914.233 610.284 913.736 613.534 914.185 616.34C914.576 618.784 916.691 618.414 916.785 615.982C916.898 613.045 916.879 610.102 917.008 607.163C917.179 603.262 917.355 599.361 917.546 595.461C918.875 568.369 923.86 541.675 933.061 516.084C936.785 505.728 941.051 495.925 946.535 486.345C951.356 477.922 957.156 469.767 963.084 462.173C968.845 454.792 974.836 447.583 981.895 441.33C987.624 436.256 993.926 431.835 1000.4 427.722C1008.63 422.498 1016.84 417.401 1025.76 413.391C1030.39 411.307 1035.11 409.441 1039.78 407.44C1040.62 407.081 1041.52 406.732 1042.33 406.315C1045.02 404.925 1044.13 402.832 1041.99 401.376" fill="#C1DEE2"/>
<path fill-rule="evenodd" clip-rule="evenodd" d="M967.818 496C975.295 496 981.949 496.972 988.838 499.943C994.785 502.508 1000.2 505.903 1005.47 509.599C1012.87 514.798 1018.7 520.848 1022.78 528.865C1025.22 533.654 1027.01 540.431 1025.37 545.655C1023.44 551.807 1018.14 556.939 1011.17 555.855C1006.86 555.185 1002.9 552.33 999.625 549.643C995.703 546.428 992.564 542.563 989.972 538.27C985.744 531.267 983.26 523.351 979.668 516.033C977.964 512.56 976.317 509.063 974.275 505.762C973.265 504.128 972.189 502.509 970.656 501.294C969.836 500.644 966.378 499.52 967.7 498.061C948.31 498.315 931.132 513.207 927.409 531.641C927.063 533.359 926.792 535.091 926.505 536.82C926.325 537.911 926.398 541.937 925.422 542.634C923.27 544.172 924.174 539.499 924.267 538.826C924.506 537.087 924.76 535.35 925.027 533.615C926.481 524.181 930.681 515.411 937.685 508.683C945.694 500.99 956.501 496 967.818 496" fill="#89C5CC"/>
<path fill-rule="evenodd" clip-rule="evenodd" d="M330.938 528.736C349.604 560.052 371.345 590.374 384.401 624.613C383.875 620.577 383.317 616.545 382.692 612.52C379.38 591.179 375.262 569.994 370.936 548.835C368.733 538.062 366.402 527.327 364.012 516.594C362.727 510.829 361.457 505.061 360.145 499.302C359.827 497.906 359.554 495.469 359.157 493C371.845 534.637 384.081 576.305 393.031 618.942C394.205 624.538 395.205 630.124 396.024 635.7C396.304 634.428 396.58 633.156 396.881 631.887C400.503 616.68 405.935 601.594 412.403 587.374C415.495 580.575 419.046 573.924 423.228 567.726C425.836 563.863 431.986 559.271 434.364 555.314C421.355 579.176 416.657 609.032 409.145 634.973C407.312 641.304 405.467 647.624 403.659 653.955C414.987 631.237 432.563 612.571 457 604.483C427.42 624.027 409.678 658.254 397.722 693.26C397.683 693.675 397.636 694.09 397.595 694.506C401.114 687.829 405.545 681.789 411.551 677.56C424.407 668.504 438.667 671.142 451.137 678.91C441.35 672.689 423.663 678.354 415.428 684.677C409.533 689.203 404.495 695.275 400.12 701.2C399.072 702.62 397.641 704.277 396.13 706.044C394.012 719.795 390.56 733.452 385.672 747C386.479 743.111 385.896 736.892 386.12 733.993C386.144 733.679 386.164 733.365 386.188 733.053C385.445 736.019 384.727 738.951 384.036 741.837C385.41 736.331 386.156 730.583 386.739 724.776C386.889 722.281 387.036 719.785 387.19 717.29C387.141 712.553 386.946 707.799 386.616 703.036C385.447 698.408 384.137 694.042 383.056 690.411C379.159 677.31 373.444 664.76 366.411 653.051C359.994 642.366 352.312 632.688 343.445 623.935C338.664 619.217 333.661 614.725 328.729 610.17C326.945 608.523 323.757 604.474 321 602.363C341.08 613.434 361.749 625.41 376.398 643.248C374.68 636.653 372.815 630.151 370.842 623.78C360.831 591.454 348.191 557.953 330.938 528.736Z" fill="#DDE3E9"/>
<path fill-rule="evenodd" clip-rule="evenodd" d="M351 706C351 741.899 353.843 771 392 771C430.157 771 433 741.899 433 706" fill="#C5CFD6"/>
<rect x="874" y="188" width="6" height="25" rx="3" fill="#DDE3E9"/>
<rect x="888" y="172" width="6" height="41" rx="3" fill="#DDE3E9"/>
<rect x="902" y="164" width="6" height="49" rx="3" fill="#DDE3E9"/>
<rect x="916" y="172" width="6" height="41" rx="3" fill="#DDE3E9"/>
<rect x="930" y="156" width="6" height="57" rx="3" fill="#C5CFD6"/>
<path fill-rule="evenodd" clip-rule="evenodd" d="M382 462.256C382 451.117 391.002 442 402 442V462.256L388.332 477C384.444 473.395 382 468.107 382 462.256Z" fill="#F2F2F2"/>
<path fill-rule="evenodd" clip-rule="evenodd" d="M401.471 462H421.668C421.668 467.221 419.538 472.113 416.171 475.668C412.468 479.556 407.195 482 401.471 482C396.198 482 391.372 479.891 387.668 476.557L401.471 462Z" fill="#AFB9C5"/>
<path fill-rule="evenodd" clip-rule="evenodd" d="M422 462C422 451.002 412.998 442 402 442V462H422ZM392 442L400 460L382 452C383.78 447.334 387.777 443.78 392 442Z" fill="#C5CFD6"/>
<path fill-rule="evenodd" clip-rule="evenodd" d="M1032.77 471.179C1030.84 473.219 1028.12 474.5 1025.1 474.5C1019.28 474.5 1014.56 469.799 1014.56 464C1014.56 458.201 1019.28 453.5 1025.1 453.5V434C1008.55 434 995 447.503 995 464C995 480.497 1008.55 494 1025.1 494C1033.79 494 1041.64 490.334 1047 484.502L1032.77 471.179Z" fill="#F2F2F2"/>
<path fill-rule="evenodd" clip-rule="evenodd" d="M1025 434V453.5C1030.8 453.5 1035.5 458.201 1035.5 464H1055C1055 447.503 1041.5 434 1025 434Z" fill="#AFB9C5"/>
<path fill-rule="evenodd" clip-rule="evenodd" d="M1035.1 464C1035.1 467.407 1033.49 470.435 1031 472.391L1043.26 488C1050.4 482.412 1055 473.749 1055 464H1035.1Z" fill="#C5CFD6"/>
<path fill-rule="evenodd" clip-rule="evenodd" d="M842.051 195.504C840.573 197.068 838.479 198.05 836.15 198.05C831.675 198.05 828.048 194.446 828.048 190C828.048 185.554 831.675 181.95 836.15 181.95V167C823.42 167 813 177.352 813 190C813 202.648 823.42 213 836.15 213C842.837 213 848.88 210.189 853 205.718L842.051 195.504Z" fill="#F2F2F2"/>
<path fill-rule="evenodd" clip-rule="evenodd" d="M836 167V181.95C840.446 181.95 844.05 185.554 844.05 190H859C859 177.352 848.648 167 836 167Z" fill="#AFB9C5"/>
<path fill-rule="evenodd" clip-rule="evenodd" d="M844.073 190C844.073 192.555 842.869 194.827 841 196.293L850.196 208C855.55 203.809 859 197.312 859 190H844.073Z" fill="#C5CFD6"/>
<path fill-rule="evenodd" clip-rule="evenodd" d="M478.007 212.986C478.003 212.996 477.999 213.006 477.993 213.018C477.999 213.008 478.007 212.968 478.007 212.986" fill="#C5CFD6"/>
<path fill-rule="evenodd" clip-rule="evenodd" d="M477.998 213.001C477.998 213.003 477.996 213.007 477.996 213.011C477.996 213.001 478.014 212.971 477.998 213.001" fill="#C5CFD6"/>
<path fill-rule="evenodd" clip-rule="evenodd" d="M478.067 212.832C478.053 212.872 478.035 212.91 478.019 212.95C478.027 212.93 478.035 212.914 478.043 212.894C477.835 213.414 477.967 213.076 478.067 212.832" fill="#C5CFD6"/>
<path fill-rule="evenodd" clip-rule="evenodd" d="M478.022 212.953C478.014 212.971 478.006 212.991 477.998 213.009C477.94 213.121 478.022 212.953 478.022 212.953" fill="#C5CFD6"/>
<path fill-rule="evenodd" clip-rule="evenodd" d="M477.999 213.002C477.999 213 477.999 213 478.001 212.998C477.999 213 477.999 213 477.999 213.002" fill="#C5CFD6"/>
<path fill-rule="evenodd" clip-rule="evenodd" d="M477.99 213.016C477.978 213.04 478.046 212.924 477.99 213.016Z" fill="#C5CFD6"/>
<path fill-rule="evenodd" clip-rule="evenodd" d="M477.998 213.002L478.002 212.998C478 213 478 213.002 477.998 213.002" fill="#C5CFD6"/>
<rect x="430" y="161" width="95" height="63" rx="4" fill="#DDE3E9"/>
<path fill-rule="evenodd" clip-rule="evenodd" d="M466 179L438 224H494L466 179Z" fill="#AFB9C5"/>
<path fill-rule="evenodd" clip-rule="evenodd" d="M493.5 191L469 224H518L493.5 191Z" fill="#C5CFD6"/>
<path fill-rule="evenodd" clip-rule="evenodd" d="M504 191C508.971 191 513 186.971 513 182C513 177.029 508.971 173 504 173C499.029 173 495 177.029 495 182C495 186.971 499.029 191 504 191Z" fill="white"/>
<path fill-rule="evenodd" clip-rule="evenodd" d="M954.993 639.986C954.997 639.996 955.001 640.006 955.007 640.018C955.001 640.008 954.993 639.968 954.993 639.986" fill="#C5CFD6"/>
<path fill-rule="evenodd" clip-rule="evenodd" d="M955.002 640.001C955.002 640.003 955.004 640.007 955.004 640.011C955.004 640.001 954.986 639.971 955.002 640.001" fill="#C5CFD6"/>
<path fill-rule="evenodd" clip-rule="evenodd" d="M954.933 639.832C954.947 639.872 954.965 639.91 954.981 639.95C954.973 639.93 954.965 639.914 954.957 639.894C955.165 640.414 955.033 640.076 954.933 639.832" fill="#C5CFD6"/>
<path fill-rule="evenodd" clip-rule="evenodd" d="M954.978 639.953C954.986 639.971 954.994 639.991 955.002 640.009C955.06 640.121 954.978 639.953 954.978 639.953" fill="#C5CFD6"/>
<path fill-rule="evenodd" clip-rule="evenodd" d="M955.001 640.002C955.001 640 955.001 640 954.999 639.998C955.001 640 955.001 640 955.001 640.002" fill="#C5CFD6"/>
<path fill-rule="evenodd" clip-rule="evenodd" d="M955.01 640.016C955.022 640.04 954.954 639.924 955.01 640.016Z" fill="#C5CFD6"/>
<path fill-rule="evenodd" clip-rule="evenodd" d="M955.002 640.002L954.998 639.998C955 640 955 640.002 955.002 640.002" fill="#C5CFD6"/>
<rect width="142" height="94" rx="4" transform="matrix(-1 0 0 1 1026 563)" fill="#DDE3E9"/>
<path fill-rule="evenodd" clip-rule="evenodd" d="M973.274 590L1014.33 657H932.219L973.274 590Z" fill="#AFB9C5"/>
<path fill-rule="evenodd" clip-rule="evenodd" d="M930.944 607.946L967.239 657H894.649L930.944 607.946Z" fill="#C5CFD6"/>
<path fill-rule="evenodd" clip-rule="evenodd" d="M915.5 608C908.044 608 902 601.956 902 594.5C902 587.044 908.044 581 915.5 581C922.956 581 929 587.044 929 594.5C929 601.956 922.956 608 915.5 608Z" fill="white"/>
<path fill-rule="evenodd" clip-rule="evenodd" d="M581.495 469.244C588.035 473.147 594.461 475.033 597.478 474.263C605.042 472.333 605.737 444.935 599.885 434.134C594.032 423.333 563.944 418.625 562.427 440.025C561.901 447.453 565.051 454.081 569.705 459.49L561.36 498H585.6L581.495 469.244Z" fill="#B28B67"/>
<path fill-rule="evenodd" clip-rule="evenodd" d="M567.842 464.308C564.8 450.906 556.133 441.771 557.456 435.782C558.78 429.792 564.512 428.332 564.512 428.332C564.512 428.332 567.477 416.457 583.636 418.23C599.795 420.004 609.657 426.648 605.398 441.268C601.483 441.268 596.757 439.866 590.221 442.268C587.111 443.411 585.772 449.358 585.772 449.358H582.818C582.818 449.358 578.518 442.301 574.339 444.171C570.16 446.042 572.439 453.259 572.439 453.259L570.984 464.308H567.842Z" fill="#191847"/>
<path fill-rule="evenodd" clip-rule="evenodd" d="M493.53 623C484.694 623 477.53 630.163 477.53 639V731C477.53 739.837 484.694 747 493.53 747H610C618.837 747 626 739.837 626 731V639C626 630.163 618.837 623 610 623H493.53ZM509.81 651C507.601 651 505.81 652.791 505.81 655V715C505.81 717.209 507.601 719 509.81 719H593.72C595.929 719 597.72 717.209 597.72 715V655C597.72 652.791 595.929 651 593.72 651H509.81Z" fill="#C5CFD6"/>
<path fill-rule="evenodd" clip-rule="evenodd" d="M726.151 742C706.238 717.924 692.764 700.075 685.73 688.454C673.685 668.555 663.828 650.848 660.717 644.084C653.299 627.955 677.795 620.403 683.339 627.926C691.73 639.312 709.65 675.143 737.1 735.417L726.151 742Z" fill="#B28B67"/>
<path fill-rule="evenodd" clip-rule="evenodd" d="M685.345 735L648.286 642.637C640.36 625.8 678.637 614.732 684.462 622.568C697.687 640.357 729.12 710.534 733.06 715.834L685.345 735Z" fill="#2F3676"/>
<path fill-rule="evenodd" clip-rule="evenodd" d="M586.644 716.477C593.863 706.051 620.12 670.974 634.423 656.461C638.532 652.291 642.543 648.288 646.335 644.557C657.609 633.47 680.059 652.106 668.806 662.205C640.782 687.355 599.893 721.307 596.476 724.334C591.688 728.577 582.107 723.029 586.644 716.477Z" fill="#B28B67"/>
<path fill-rule="evenodd" clip-rule="evenodd" d="M591.307 712.167C590.614 711.231 589.273 711.012 588.373 711.761C586.721 713.136 584.337 715.261 583.478 716.734C582.112 719.076 580.28 724.021 580.28 724.021C583.025 725.59 629.614 752.222 629.614 752.222C629.614 752.222 635.207 747.027 631.357 744.157C627.506 741.286 625.002 739.315 625.002 739.315L607.967 716.078C607.636 715.626 606.994 715.536 606.546 715.878L603.002 718.579C603.002 718.579 598.133 718.159 595.735 716.788C594.27 715.95 592.478 713.751 591.307 712.167Z" fill="#E4E4E4"/>
<path fill-rule="evenodd" clip-rule="evenodd" d="M720.352 737.27C719.285 736.804 718.02 737.279 717.619 738.372C716.882 740.38 715.89 743.404 715.89 745.106C715.89 747.811 716.8 753 716.8 753C719.969 753 773.766 753 773.766 753C773.766 753 775.986 745.732 771.202 745.152C766.418 744.573 763.254 744.106 763.254 744.106L736.762 732.412C736.249 732.186 735.65 732.425 735.435 732.943L733.729 737.039C733.729 737.039 729.301 739.085 726.532 739.085C724.836 739.085 722.167 738.063 720.352 737.27Z" fill="#E4E4E4"/>
<path fill-rule="evenodd" clip-rule="evenodd" d="M634.951 647.25C634.951 647.25 588.748 639.798 573.056 637.058C543.238 631.852 534.543 615.965 539.684 581.302L594.624 581.302C605.529 584.42 685.759 619.872 685.759 619.872C695.383 624.602 693.59 638.548 691.831 643.142C691.724 643.423 643.162 725.713 643.162 725.713L598.219 697.366L635.035 650.59C635.035 650.59 636.494 647.682 634.951 647.25Z" fill="#5C63AB"/>
<path fill-rule="evenodd" clip-rule="evenodd" d="M671.126 591.635L638.909 568.211L631.787 585.642L663.691 598.741C672.714 609.235 677.759 613.61 678.827 611.865C679.728 610.394 679.024 609.017 678.375 607.749C677.87 606.76 677.399 605.838 677.746 604.989C678.538 603.049 684.599 603.254 690.343 603.691C696.086 604.128 694.412 601.598 693.027 600.349C687.165 596.874 679.864 593.97 671.126 591.635ZM502.172 632.908C505.132 626.963 515.211 569.02 515.211 569.02L536.318 569.102C536.318 569.102 516.769 631.583 515.211 635.406C513.187 640.372 516.625 647.587 518.956 652.48C519.317 653.237 519.651 653.938 519.935 654.567C516.7 656 515.146 654.268 513.508 652.442C511.658 650.379 509.7 648.197 505.091 650.319C503.31 651.14 501.625 652.109 499.979 653.057C494.293 656.329 489.069 659.336 481.963 654.994C480.837 654.306 479.602 651.715 482.585 649.69C490.016 644.645 500.725 635.815 502.172 632.908Z" fill="#B28B67"/>
<path fill-rule="evenodd" clip-rule="evenodd" d="M575.192 481.332L583.926 479.849C616.33 507.564 629.64 560.809 669.359 589.015L659.799 600.748C590.893 592.301 573.814 527.355 575.192 481.332Z" fill="#E87613"/>
<path fill-rule="evenodd" clip-rule="evenodd" d="M537.12 590C537.12 590 589.648 590 614.397 590C617.928 590 617.262 584.952 616.752 582.404C610.861 553.004 587.864 521.312 587.864 479.461L565.574 476C547.137 505.358 540.761 541.505 537.12 590Z" fill="#DDE3E9"/>
<path fill-rule="evenodd" clip-rule="evenodd" d="M528.431 611C524.958 619.259 521.552 626.465 518.343 632H501.77C499.987 574.919 521.814 530.996 540.081 504.513C536.025 504.226 532.364 502.545 530.05 498.411C521.903 483.856 524.845 475.842 533.552 473.208C538.34 471.76 542.842 472.748 548.232 473.932C552.643 474.9 557.648 475.999 563.889 476C563.891 476 563.893 476 563.895 476C564.5 476 565.05 476.04 565.55 476.117L572.946 476.535C572.946 476.535 602.977 577.305 589.511 611H528.431Z" fill="#FF9B21"/>
<path fill-rule="evenodd" clip-rule="evenodd" d="M528.431 611C532.988 600.164 537.661 587.516 542.158 574.454C543.831 588.839 546.619 603.286 551.26 611H528.431Z" fill="black" fill-opacity="0.1"/>
<path fill-rule="evenodd" clip-rule="evenodd" d="M869.823 401.65C862.538 406.041 855.38 408.162 852.02 407.296C843.594 405.125 842.82 374.302 849.339 362.151C855.858 349.999 889.372 344.703 891.061 368.779C891.647 377.134 888.139 384.592 882.955 390.676L892.25 434H865.25L869.823 401.65Z" fill="#B28B67"/>
<path fill-rule="evenodd" clip-rule="evenodd" d="M868.473 371.438C866.137 367.96 863.895 365.308 860.979 363.767C849.109 363.955 847.719 361.827 847.719 354.655C849.636 353.283 856.401 350.973 863.976 350.323C867.841 349.217 872.419 349.425 876.829 351.27C882.273 352.815 886.883 356.141 888.919 362.369C896.286 375.083 890.695 388.317 883.16 392.838C881.154 390.461 879.403 388.158 877.842 385.954C879.096 384.728 879.875 383.017 879.875 381.125C879.875 377.397 876.853 374.375 873.125 374.375C872.851 374.375 872.581 374.391 872.315 374.423C872.147 379.084 871.457 394.853 869.644 400.33C867.506 406.788 855.031 408.374 850.68 408.374C846.922 408.374 847.05 404.815 847.142 402.265C847.155 401.897 847.167 401.551 847.167 401.239C847.167 400.588 848.015 400.589 848.972 400.591C850.216 400.594 851.644 400.597 851.644 399.17C851.644 397.615 849.496 396.422 847.573 395.355C846.373 394.689 845.261 394.072 844.814 393.447C843.404 391.472 842.929 388.81 845.057 388.81C846.22 388.81 847.815 389.48 849.735 390.287C852.633 391.505 856.27 393.033 860.271 393.033C866.881 393.033 868.453 371.705 868.473 371.438Z" fill="#191847"/>
<path fill-rule="evenodd" clip-rule="evenodd" d="M921 546L884.745 673.227L858.293 767H839L867.109 546H921Z" fill="#191847"/>
<path fill-rule="evenodd" clip-rule="evenodd" d="M930.696 546C931.534 611.574 934.394 647.34 935.274 653.298C936.155 659.256 949.468 697.156 975.214 767H955.228C922.451 699.997 904.155 662.096 900.338 653.298C896.521 644.5 884.742 608.734 867 546H930.696Z" fill="#2F3676"/>
<path fill-rule="evenodd" clip-rule="evenodd" d="M977 785L976 764L955 764C940.064 774.5 916 781 916 781V785H954L967 783V785H977Z" fill="#191847"/>
<path fill-rule="evenodd" clip-rule="evenodd" d="M861 785L860 764L839 764C824.064 774.5 800 781 800 781V785H838L851 783V785H861Z" fill="#191847"/>
<path fill-rule="evenodd" clip-rule="evenodd" d="M770.765 481.704L807 497.617L795.43 512.439L768.293 491.633C754.738 489.143 748.451 487.004 749.434 485.216C750.262 483.709 751.803 483.624 753.222 483.545C754.328 483.484 755.36 483.427 755.924 482.705C757.211 481.056 754.034 475.961 750.812 471.255C747.59 466.549 750.61 466.719 752.377 467.282C758.289 470.572 764.418 475.379 770.765 481.704ZM933 506.066L953.492 502C967.389 538.63 975.674 558.702 978.348 562.218C980.308 564.796 992.397 571.437 1000.58 574.984C1003.86 576.407 1003.16 579.183 1002.2 580.071C996.12 585.672 990.471 583.709 984.322 581.572C982.541 580.953 980.719 580.32 978.833 579.851C973.95 578.639 972.464 581.15 971.06 583.523C969.816 585.624 968.637 587.616 965.221 586.821C965.376 586.151 965.567 585.4 965.773 584.589C967.105 579.349 969.069 571.62 966.155 567.13C964.66 564.826 953.608 544.471 933 506.066Z" fill="#B28B67"/>
<path fill-rule="evenodd" clip-rule="evenodd" d="M877.305 425.332L868.658 423.849C849.823 442.119 842.138 486.012 829.586 491.823C817.719 497.316 800.896 492 780.9 484.823L774.776 498.505C792.945 518.161 831.651 534.767 847.34 525.287C872.423 510.13 878.214 455.994 877.305 425.332Z" fill="#DB2721"/>
<path fill-rule="evenodd" clip-rule="evenodd" d="M915 534C915 534 862.992 534 838.489 534C834.992 534 835.651 528.952 836.157 526.404C841.989 497.004 864.759 465.312 864.759 423.461L886.828 420C905.083 449.358 911.395 485.505 915 534Z" fill="#DDE3E9"/>
<path fill-rule="evenodd" clip-rule="evenodd" d="M888 420H888.252C937.753 450.504 967.669 497.791 978 561.859L961.963 565C951.339 552.623 938.229 532.368 922.631 504.233C927.417 521.181 930.91 538.563 932 555H863.128C849.795 521.305 879.514 420 879.514 420H884.269H888Z" fill="#FF4133"/>
<defs>
<clipPath id="clip0">
<rect x="305.33" y="464.965" width="837.341" height="272.541" fill="white"/>
</clipPath>
<clipPath id="clip1">
<rect x="545" y="224.2" width="73" height="21.6" fill="white"/>
</clipPath>
<clipPath id="clip2">
<rect x="545" y="282.6" width="73" height="16.8" fill="white"/>
</clipPath>
<clipPath id="clip3">
<rect x="545" y="332.6" width="73" height="16.8" fill="white"/>
</clipPath>
<clipPath id="clip4">
<rect x="545" y="382.6" width="73" height="16.8" fill="white"/>
</clipPath>
<clipPath id="clip5">
<rect x="581" y="250.2" width="73" height="21.6" fill="white"/>
</clipPath>
<clipPath id="clip6">
<rect x="611" y="308.6" width="73" height="16.8" fill="white"/>
</clipPath>
<clipPath id="clip7">
<rect x="581" y="358.6" width="73" height="16.8" fill="white"/>
</clipPath>
<clipPath id="clip8">
<rect x="611" y="408.6" width="73" height="16.8" fill="white"/>
</clipPath>
<clipPath id="clip9">
<rect x="649" y="289.1" width="167" height="18.8" fill="white"/>
</clipPath>
<clipPath id="clip10">
<rect x="649" y="341.7" width="167" height="15.6" fill="white"/>
</clipPath>
<clipPath id="clip11">
<rect x="649" y="388.7" width="167" height="15.6" fill="white"/>
</clipPath>
<clipPath id="clip12">
<rect x="649" y="529.7" width="167" height="15.6" fill="white"/>
</clipPath>
<clipPath id="clip13">
<rect x="649" y="482.7" width="167" height="15.6" fill="white"/>
</clipPath>
<clipPath id="clip14">
<rect x="649" y="435.7" width="167" height="15.6" fill="white"/>
</clipPath>
</defs>
</svg>
