<svg xmlns="http://www.w3.org/2000/svg" xmlns:xlink="http://www.w3.org/1999/xlink" width="400" height="48.795"><g fill-rule="evenodd"><path fill="#4ca404" d="M0 24.25V48.5h10.833V20.111l.496.486c.272.268.497.569.5.669.002.101.136.337.296.525.16.188.704.929 1.208 1.647.505.718 1.157 1.555 1.45 1.859.294.304.537.587.542.628.005.041.008.136.008.21 0 .075.141.287.314.472.172.185.512.652.756 1.039.244.386.71 1.055 1.035 1.486 1.218 1.617 1.75 2.349 2.623 3.618.316.458.769 1.051 1.007 1.318.237.266.432.547.432.625 0 .077.131.274.292.437.16.163.509.631.775 1.041.266.41.585.806.708.879.124.073.225.211.225.307 0 .197 1.815 2.717 2.329 3.232.186.187.338.405.338.485 0 .08.287.527.638.994.35.467.979 1.313 1.397 1.882.418.568.818.98.889.916.071-.064.068-.011-.006.118-.085.145-.042.302.112.416.137.101.442.49.678.865.236.375.533.787.661.917.128.129.376.478.551.776l.318.542h10.928V0H31.507l-.005 14.113c-.003 7.762-.024 14.132-.047 14.155-.023.022-.641-.782-1.374-1.789a174.229 174.229 0 00-1.831-2.482A56.169 56.169 0 0127 22.263c-.413-.595-.811-1.085-.885-1.089-.074-.004-.091-.078-.038-.164.053-.086-.006-.217-.133-.291-.126-.075-.438-.473-.693-.886-.456-.737-.561-.874-1.243-1.625-.188-.206-.352-.431-.365-.5-.022-.119-.248-.445-1.268-1.83a30.282 30.282 0 01-.913-1.334c-.25-.391-.531-.711-.625-.711-.094 0-.172-.093-.175-.208-.003-.172-.931-1.505-2.234-3.208-.14-.184-.538-.731-.883-1.217a335.989 335.989 0 00-2.804-3.867 91.743 91.743 0 01-1.244-1.75c-.446-.641-.925-1.295-1.065-1.452a9.552 9.552 0 01-.662-.932C10.959-.086 11.415 0 5.405 0H0v24.25M51.76.352C50.175.897 48.921 2.009 48 3.687l-.583 1.063-.019 19.167c-.02 19.347 0 20.066.589 20.697.179.193.283.394.23.446-.528.528 3.255 3.512 4.061 3.203.116-.045.256-.01.31.078.062.099 7.035.159 18.672.159h18.573v-9.667H58.167V26.502l15.791-.043 15.792-.042.044-4.822c.035-3.747-.002-4.852-.166-4.956-.116-.074-7.243-.135-15.836-.136L58.167 16.5V9.667h31.647l.014-4.834L89.842 0 71.296.006C53.063.011 52.733.017 51.76.352m40.762 1.106c.282.802.576 1.536.653 1.631.077.095.34.733.585 1.417.245.684.502 1.319.571 1.411.07.091.37.841.669 1.666.299.825.603 1.577.677 1.671.074.094.261.542.415.995.154.454.449 1.202.656 1.663.207.461.542 1.287.743 1.836.202.549.427 1.074.501 1.167.073.092.339.768.591 1.502.252.733.548 1.483.657 1.666.11.184.375.821.589 1.417.215.596.491 1.271.613 1.5.123.229.452 1.051.733 1.827.28.775.568 1.488.639 1.583.071.095.3.661.508 1.257.208.595.472 1.233.586 1.416.114.184.373.833.575 1.444.202.611.481 1.154.62 1.207.138.053.21.165.159.247-.051.083.008.402.131.71l.358.892c.073.184.152.424.175.533.023.11.194.523.38.917.185.394.541 1.28.79 1.967.248.688.505 1.325.571 1.417.065.091.326.729.58 1.416.254.688.546 1.325.649 1.417.103.092.211.317.24.5.069.446.622 1.939 1.119 3.026.222.485.451 1.071.509 1.303.058.232.177.421.264.421.087 0 .12.062.074.137-.047.075.009.319.125.542.115.222.426 1.004.69 1.738.625 1.733-.109 1.586 7.644 1.54l6.811-.04.417-1.167c.228-.642.489-1.257.578-1.368.089-.11.106-.291.038-.4-.069-.113-.053-.157.038-.101.089.055.301-.327.471-.849.171-.522.485-1.324.697-1.782a31.26 31.26 0 00.785-1.91c.446-1.209.677-1.406.846-.722.063.256.329.915.59 1.465.261.55.599 1.393.751 1.873.152.481.346.917.432.97a.183.183 0 01.061.252c-.053.086-.035.155.04.155.075 0 .234.313.353.696.12.382.336.964.482 1.292.145.327.292.74.327.916.15.775.034.763 7.326.763 6.063 0 6.896-.031 6.896-.254 0-.139.218-.734.484-1.321s.441-1.111.389-1.163c-.052-.052.005-.095.127-.095s.173-.05.113-.11c-.061-.06-.046-.192.033-.292.079-.1.277-.594.44-1.098.163-.504.346-.955.407-1 .061-.046.286-.571.499-1.167.213-.596.52-1.383.683-1.75.557-1.259.786-1.835.996-2.5.116-.367.262-.704.325-.75.063-.046.329-.683.591-1.417.263-.733.545-1.379.626-1.435.082-.056.142-.15.133-.209-.009-.059.097-.379.235-.71.139-.332.252-.672.252-.756 0-.085.213-.619.474-1.188.26-.569.648-1.523.86-2.118.213-.596.451-1.168.529-1.271.079-.102.324-.72.546-1.373.222-.652.52-1.393.662-1.646.38-.678.76-1.914.645-2.1-.056-.089-.014-.109.092-.043.122.075.192-.007.192-.224 0-.189.063-.343.141-.343.119 0 .522-1.073.546-1.457a.682.682 0 01.139-.293c.072-.092.227-.467.343-.834.117-.366.281-.711.364-.765.083-.054.163-.26.178-.458.015-.198.07-.36.124-.36.053 0 .239-.431.414-.958.175-.527.434-1.143.576-1.368.142-.225.243-.43.224-.455-.019-.026.075-.308.209-.627.133-.32.242-.624.242-.677 0-.053.215-.561.478-1.13.263-.569.612-1.447.775-1.952.163-.504.348-.954.41-1 .063-.046.328-.683.59-1.416.262-.734.569-1.484.682-1.667.113-.183.23-.483.26-.667.031-.183.093-.371.14-.416.047-.046.228-.496.403-1 .175-.505.379-.958.453-1.008.074-.049.16-.237.192-.416.032-.18.175-.595.318-.924.143-.329.316-.779.385-1 .069-.221.228-.55.353-.731.126-.181.228-.387.228-.458 0-.072-2.765-.13-6.144-.13h-6.144l-.428.958a37.989 37.989 0 00-.795 1.959c-.202.55-.441 1.093-.532 1.208-.09.115-.099.209-.019.211.08.001.07.058-.023.125-.092.067-.312.535-.488 1.039a17.877 17.877 0 01-.69 1.667c-.203.412-.506 1.2-.674 1.75-.167.55-.366 1.044-.442 1.098-.076.054-.15.26-.165.458-.015.198-.09.36-.168.36-.078 0-.098.07-.045.155.053.086.018.203-.076.262-.095.059-.129.176-.077.262.053.085.027.155-.059.155-.085 0-.249.337-.364.75-.116.412-.267.75-.336.75s-.165.168-.213.375c-.126.544-.806 2.346-.959 2.541-.072.092-.328.692-.568 1.334a28.464 28.464 0 01-.783 1.881c-.189.393-.355.892-.368 1.109-.013.217-.08.36-.148.317-.069-.042-.125.044-.125.191 0 .147-.156.583-.346.968-.19.385-.536 1.225-.769 1.867-.233.642-.491 1.25-.572 1.351-.208.259-.83 2.104-.74 2.194.04.041-.055.211-.211.379-.271.29-1.362 3.072-1.362 3.471 0 .104-.069.188-.153.188-.084 0-.389.707-.677 1.571-.689 2.068-.891 2.231-1.272 1.023-.161-.51-.354-.927-.429-.927-.075 0-.136-.113-.136-.25 0-.138-.079-.25-.177-.25-.097 0-.136-.065-.087-.144.093-.151-.523-2.047-.712-2.189-.06-.046-.25-.496-.422-1-.171-.505-.416-1.086-.544-1.292-.128-.206-.191-.375-.141-.375.05 0-.032-.239-.184-.532-.151-.292-.449-1.044-.662-1.67l-.387-1.138.411-1.122c.225-.617.521-1.32.658-1.564.136-.243.247-.599.247-.791 0-.192.061-.35.136-.35.075 0 .272-.431.437-.958.166-.527.374-1.005.464-1.062.089-.056.174-.3.188-.541.014-.241.075-.438.137-.439.061 0 .241-.393.399-.875.159-.481.34-.912.403-.958.063-.046.324-.683.58-1.417.255-.733.539-1.427.631-1.541.091-.115.1-.21.02-.211-.08-.002-.062-.058.039-.125.101-.068.316-.535.478-1.039a15.01 15.01 0 01.665-1.67c.204-.415.507-1.165.674-1.667.167-.502.481-1.247.698-1.656.216-.408.357-.839.311-.958-.046-.119-.022-.216.052-.216s.237-.319.363-.708c.125-.39.276-.746.336-.792.059-.046.354-.758.656-1.583l.625-1.711c.063-.167-1.17-.201-6.049-.166l-6.127.043-.326.628c-.179.345-.336.807-.349 1.026-.014.219-.081.363-.149.321-.069-.043-.125.03-.125.162s-.127.53-.281.885c-.155.355-.267.701-.25.77.017.069-.052.125-.154.125-.101 0-.141.113-.088.25.052.138.031.25-.048.25s-.195.206-.258.458c-.062.252-.28.796-.483 1.209a16.551 16.551 0 00-.689 1.71c-.364 1.092-.544 1.134-.863.197-.123-.362-.272-.77-.33-.907a2.946 2.946 0 01-.149-.45c-.023-.11-.197-.522-.385-.917-.547-1.14-.909-2.039-.88-2.18.015-.071-.161-.483-.391-.915-.23-.432-.418-.884-.418-1.005 0-.121-.074-.174-.165-.118-.095.059-.122-.009-.064-.159.055-.143.007-.372-.106-.508-.113-.137-.156-.248-.096-.248s.029-.15-.069-.334c-.222-.414-12.333-.537-12.333-.125 0 .277.665 2.018.811 2.125.063.046.252.534.421 1.084.168.55.512 1.45.765 2s.553 1.3.668 1.666c.115.367.348.929.519 1.25.17.321.508 1.146.749 1.834.241.687.506 1.334.589 1.437.082.102.331.721.553 1.373.222.653.521 1.354.664 1.559.143.204.261.505.261.668 0 .163.059.296.131.296.072 0 .144.168.159.373.016.204.107.398.203.43.097.033.136.122.088.2-.048.078.128.615.392 1.194.263.579.573 1.353.688 1.72.115.366.31.828.434 1.025.123.198.408.883.631 1.523.224.641.533 1.429.686 1.753.25.525.253.63.032.977-.136.214-.456.988-.711 1.722-.255.733-.512 1.37-.571 1.416-.059.046-.317.684-.573 1.417-.255.733-.526 1.411-.601 1.506-.075.095-.326.695-.557 1.333-.231.639-.573 1.458-.759 1.821-.187.363-.344.776-.35.917-.01.253-.271-.24-.288-.544-.004-.074-.115-.299-.246-.5-.131-.202-.334-.666-.452-1.033a7.664 7.664 0 00-.392-1 2.6 2.6 0 01-.232-.661c-.03-.18-.151-.48-.268-.667-.118-.186-.352-.714-.521-1.172a32.334 32.334 0 00-.699-1.698c-.215-.475-.391-.901-.391-.947 0-.046-.087-.294-.192-.552a5.245 5.245 0 01-.241-.717c-.027-.135-.128-.273-.226-.306-.097-.032-.129-.135-.071-.23a.205.205 0 00-.055-.277c-.089-.058-.366-.706-.616-1.44-.25-.733-.551-1.483-.668-1.666-.117-.184-.348-.746-.512-1.25a20.93 20.93 0 00-.765-1.917c-.256-.55-.516-1.206-.578-1.458-.062-.252-.177-.459-.256-.459-.078 0-.1-.112-.047-.25.054-.141.004-.25-.116-.25-.117 0-.163-.049-.103-.109.06-.061.042-.192-.041-.292-.083-.1-.319-.67-.523-1.265a28.83 28.83 0 00-.843-2.119c-.259-.57-.519-1.226-.577-1.459-.058-.232-.177-.422-.265-.422-.087 0-.113-.074-.058-.163.056-.089-.049-.446-.233-.792-.184-.346-.536-1.191-.783-1.879-.246-.687-.592-1.456-.768-1.708-.175-.252-.28-.458-.233-.458.11 0-.515-1.822-.709-2.066-.081-.101-.202-.365-.27-.586a11.86 11.86 0 00-.384-1c-.142-.329-.285-.745-.317-.924-.101-.565-.333-.586-6.504-.588L92.009 0l.513 1.458"/><path fill="#646464" d="M168.333 4.833v4.834H183.962l.126 4.625c.069 2.543.078 6.406.02 8.584-.059 2.177-.057 8.834.003 14.792l.11 10.832h10.612V9.667H210.5V0h-42.167v4.833M220.917.11c-.503.108-1.822.596-1.917.709-.046.055-.383.322-.75.594-.898.667-1.418 1.197-1.295 1.319.055.056.009.101-.102.101-.112 0-.319.282-.461.625-.141.344-.355.85-.476 1.125-.12.275-.237.613-.261.75-.16.937-.127 37.416.034 37.61.102.123.145.224.096.224-.214 0 .754 2.251 1.131 2.627.229.23.417.474.417.542 0 .214 1.716 1.42 2.5 1.758.725.312 1.378.324 19.371.368l18.621.045.093-.379c.051-.208.071-2.366.045-4.795l-.046-4.416-15.792-.043-15.792-.042V26.333h15.733c14.191 0 15.742-.025 15.833-.263.257-.67.108-9.198-.163-9.302-.145-.056-7.27-.101-15.833-.101h-15.57v-7h15.733c14.474 0 15.74-.022 15.837-.276.058-.151.1-2.326.092-4.833L257.98 0l-18.365.019C229.514.03 221.1.071 220.917.11m41.918 20.932c.003 20.888.049 22.791.558 23.343.105.114.207.292.227.396.103.531 1.877 2.549 2.243 2.552.062 0 .212.096.333.213.936.904.111.867 20.346.916l18.625.045v-9.674h-31.5V19.68c0-10.534-.046-19.271-.101-19.416-.09-.233-.724-.264-5.418-.264h-5.317l.004 21.042M314.756.361c-2.006.675-3.728 2.482-4.183 4.389-.065.275-.147.551-.182.613-.034.062-.065 8.546-.068 18.853-.006 18.551.034 20.073.531 20.38.08.05.146.235.146.413 0 .177.225.522.5.767s.463.484.417.529c-.046.046.408.442 1.009.88 1.921 1.401.534 1.315 21.227 1.315h18.352l-.044-4.792-.044-4.791-15.792-.043-15.792-.042v-8.806c0-4.843.05-11.405.111-14.582l.11-5.777H352.5v-9.67l-18.375.015c-17.934.014-18.399.023-19.369.349m47.827-.127c-1.717.557-3.247 1.784-3.948 3.166-.191.376-.417.729-.504.784-.086.056-.134.206-.107.334.028.127-.045.569-.16.982-.166.589-.197 4.71-.147 19.25.065 18.622.073 19.04.397 19.444.097.123.275.5.395.839.328.927 1.769 2.369 2.85 2.852 1.388.619 1.443.621 17.217.616 8.529-.003 15.718-.044 15.974-.092.521-.095 1.821-.583 1.95-.732.046-.052.383-.319.75-.592 1.207-.898 1.966-1.939 2.335-3.204.221-.755.254-3.321.252-19.685-.002-20.032.019-19.457-.764-20.652-.136-.207-.208-.377-.16-.377.116 0-.348-.539-1.163-1.35-.367-.365-1.154-.905-1.75-1.199l-1.083-.535-15.834-.032c-12.585-.026-15.97.011-16.5.183m26.584 24.016v14.583h-20.613l-.115-8.664c-.063-4.765-.063-11.328 0-14.583l.114-5.919h20.614V24.25"/><path fill="#4cac04" d="M47.409 26.667c0 3.62.022 5.102.049 3.291.027-1.81.027-4.773 0-6.583-.027-1.81-.049-.329-.049 3.292"/><path fill="#586468" d="M210.574 4.833c0 2.704.023 3.811.051 2.459a143.92 143.92 0 000-4.917c-.028-1.352-.051-.246-.051 2.458m63.051 9.209c.023 7.723.062 16.479.086 19.458.024 2.979.061-3.34.083-14.042C273.816 8.756 273.777 0 273.708 0c-.068 0-.106 6.319-.083 14.042M361.074.745c-.178.134-.249.244-.157.244.091 0 .312-.11.49-.244.178-.135.248-.245.157-.245-.092 0-.313.11-.49.245m-142.838.517l-.653.595.667-.463.736-.512c.038-.027.032-.086-.014-.132-.046-.046-.377.185-.736.512m140.85 1.191l-.293.464.386-.371c.212-.203.344-.412.293-.463-.052-.051-.225.115-.386.37m-1.328 2.649c-.149.792-.027.883.198.148.099-.321.12-.62.047-.665-.073-.045-.184.187-.245.517m-47.653.94c-.176.658-.116 36.399.062 36.125.149-.232.247-36.5.098-36.5-.033 0-.105.168-.16.375m89.809 18.208c0 9.717.02 13.716.044 8.888.025-4.829.025-12.779 0-17.667-.024-4.888-.044-.938-.044 8.779m-216.081 4.806c0 12.417.059 19.444.162 19.444.182 0 .132-38.595-.051-38.778-.061-.061-.111 8.639-.111 19.334m46.834-12.434c11.381.113 27.333.115 27.333.003 0-.069-7.144-.108-15.875-.086-8.731.021-13.888.059-11.458.083M368.408 22.5c0 2.979.022 4.198.05 2.708.028-1.489.028-3.927 0-5.416-.028-1.49-.05-.271-.05 2.708m-47.496 5.583c0 5.959.021 8.372.046 5.363.026-3.009.026-7.884 0-10.833-.025-2.95-.046-.488-.046 5.47m-63.079-1.917c0 .108-5.457.181-15.791.209l-15.792.043 15.875.041c14.018.036 15.875.012 15.875-.209 0-.137-.038-.25-.083-.25-.046 0-.084.075-.084.166M216.872 46c.115.183.266.333.336.333.071 0 .034-.15-.08-.333-.115-.183-.266-.333-.336-.333-.071 0-.034.15.08.333m142.111.116c.184.363.493.638.59.526.028-.032-.136-.246-.363-.475-.377-.381-.397-.385-.227-.051m38.935.411c-.401.425-.426.489-.128.33a1.55 1.55 0 00.545-.527c.243-.454.161-.416-.417.197m-133.351-.051c.353.397.433.433.433.197 0-.089-.169-.25-.375-.358-.373-.196-.373-.195-.058.161m47.586.251c.222.274.847.687.847.56 0-.032-.244-.236-.542-.454-.335-.246-.451-.286-.305-.106m84.639.672c-.161.121-.292.267-.292.322 0 .188.473-.078.565-.317.11-.286.097-.287-.273-.005m-25.154 1.226c4.063.025 10.663.025 14.666 0 4.004-.025.679-.045-7.387-.045-8.067 0-11.343.02-7.279.045"/></g></svg>